<?xml version="1.0" standalone="no"?>
<!DOCTYPE svg PUBLIC "-//W3C//DTD SVG 20010904//EN"
 "http://www.w3.org/TR/2001/REC-SVG-20010904/DTD/svg10.dtd">
<svg version="1.0" xmlns="http://www.w3.org/2000/svg"
 width="1000.000000pt" height="1000.000000pt" viewBox="0 0 1000.000000 1000.000000"
 preserveAspectRatio="xMidYMid meet">

<g transform="translate(0.000000,1000.000000) scale(0.100000,-0.100000)"
fill="#000000" stroke="none">
<path d="M3020 9019 c-1111 -97 -2018 -933 -2204 -2034 -35 -207 -37 -335 -34
-2105 4 -1892 1 -1780 58 -2043 120 -552 453 -1073 907 -1414 353 -265 720
-416 1178 -484 54 -8 326 -13 827 -16 l747 -4 5 23 c3 13 13 84 21 158 9 74
21 137 26 141 6 3 43 12 82 19 40 7 88 16 107 21 38 9 270 34 415 44 50 4 100
8 112 10 12 2 87 7 165 10 79 4 161 8 183 10 22 1 148 7 280 11 178 7 -139 10
-1230 14 -1346 5 -1478 7 -1565 23 -418 78 -763 237 -1070 495 -336 282 -592
690 -700 1117 -69 271 -65 155 -65 1960 0 1804 -4 1696 65 1961 197 764 799
1367 1564 1564 267 69 147 65 2126 65 l1785 0 128 -23 c361 -65 660 -194 946
-407 473 -352 789 -900 861 -1495 5 -46 10 -262 10 -479 0 -217 2 -392 4 -390
8 8 10 812 2 864 -57 401 -126 619 -281 893 -162 286 -372 525 -637 725 -97
73 -161 114 -343 220 -16 9 -68 36 -115 59 -47 24 -88 46 -91 51 -3 4 -37 19
-75 32 -38 13 -70 29 -72 34 -2 6 -10 11 -18 11 -8 0 -14 3 -14 8 0 4 38 72
84 152 46 80 81 148 78 152 -13 12 -215 39 -366 48 -186 12 -3753 11 -3886 -1z"/>
<path d="M6098 6319 c30 -29 57 -48 60 -42 9 12 144 62 191 69 68 11 44 14
-112 14 -85 0 -164 3 -174 6 -10 3 6 -18 35 -47z"/>
<path d="M7027 6047 c5 -275 -1 -905 -26 -2827 -6 -474 -7 -496 -26 -522 l-20
-27 -425 -1 c-435 -1 -969 -14 -1280 -30 -96 -5 -377 -14 -625 -19 -247 -6
-594 -15 -770 -20 -345 -9 -359 -8 -415 43 -14 12 -33 28 -44 36 -18 14 -18
13 -11 -20 19 -89 80 -167 165 -211 l45 -24 1607 -3 c1593 -2 1607 -2 1661 18
65 24 136 91 169 158 l23 47 3 1825 c1 1004 0 1840 -3 1858 -3 17 -12 32 -20
32 -11 0 -12 -53 -8 -313z"/>
</g>
</svg>
